# xmcd CD database file
#
# Track frame offsets:
#	150
#	24377
#	44007
#	66050
#	90157
#	113117
#	141437
#	169930
#	203057
#	232725
#	259247
#	285682
#	309950
#	332062
#
# Disc length: 4741 seconds
#
# Revision: 1
# Processed by: cddbd v1.5.1PL2 Copyright (c) Steve Scherf et al.
# Submitted via: CDex 1.51
#
DISCID=bf12830e
DTITLE=Lou Donaldson - The Complete Blue Note Sessions 1957-60 CD 2
DYEAR=2002
DGENRE=Jazz
TTITLE0=Dorothy
TTITLE1=I Won't Cry Anymore
TTITLE2=Herman's Mambo
TTITLE3=Peck Time
TTITLE4=There Will Never Be Another You
TTITLE5=Groove Junction
TTITLE6=Grits and Gravy
TTITLE7=There Will Never Be Another You [mono master]
TTITLE8=Blues Walk
TTITLE9=Move
TTITLE10=The Masquerade Is Over
TTITLE11=Play Ray
TTITLE12=Autumn Nocturne
TTITLE13=Callin' All Cats
EXTD=YEAR: 2002
EXTT0=
EXTT1=
EXTT2=
EXTT3=
EXTT4=
EXTT5=
EXTT6=
EXTT7=
EXTT8=
EXTT9=
EXTT10=
EXTT11=
EXTT12=
EXTT13=
PLAYORDER=
